<?xml version="1.0" encoding="UTF-8"?>
<svg xmlns="http://www.w3.org/2000/svg" xmlns:xlink="http://www.w3.org/1999/xlink" width="393.281pt" height="393.615pt" viewBox="0 0 393.281 393.615" version="1.1">
<defs>
<clipPath id="clip1">
  <path d="M 0 0 L 393.28125 0 L 393.28125 393.613281 L 0 393.613281 Z M 0 0 "/>
</clipPath>
<clipPath id="clip2">
  <path d="M 0 162 L 232 162 L 232 393.613281 L 0 393.613281 Z M 0 162 "/>
</clipPath>
<clipPath id="clip3">
  <path d="M 0 237 L 155 237 L 155 393.613281 L 0 393.613281 Z M 0 237 "/>
</clipPath>
<clipPath id="clip4">
  <path d="M 0 299 L 96 299 L 96 393.613281 L 0 393.613281 Z M 0 299 "/>
</clipPath>
<clipPath id="clip5">
  <path d="M 0 303 L 92 303 L 92 393.613281 L 0 393.613281 Z M 0 303 "/>
</clipPath>
<clipPath id="clip6">
  <path d="M 0 344 L 51 344 L 51 393.613281 L 0 393.613281 Z M 0 344 "/>
</clipPath>
<clipPath id="clip7">
  <path d="M 0 365 L 29 365 L 29 393.613281 L 0 393.613281 Z M 0 365 "/>
</clipPath>
<clipPath id="clip8">
  <path d="M 0 160 L 359 160 L 359 393.613281 L 0 393.613281 Z M 0 160 "/>
</clipPath>
<clipPath id="clip9">
  <path d="M 0 65 L 353 65 L 353 393.613281 L 0 393.613281 Z M 0 65 "/>
</clipPath>
<clipPath id="clip10">
  <path d="M 0 228 L 343 228 L 343 393.613281 L 0 393.613281 Z M 0 228 "/>
</clipPath>
<clipPath id="clip11">
  <path d="M 0 315 L 316 315 L 316 393.613281 L 0 393.613281 Z M 0 315 "/>
</clipPath>
<clipPath id="clip12">
  <path d="M 0 0 L 393.28125 0 L 393.28125 393.613281 L 0 393.613281 Z M 0 0 "/>
</clipPath>
</defs>
<g id="surface1">
<path style=" stroke:none;fill-rule:nonzero;fill:rgb(99.198914%,97.999573%,95.698547%);fill-opacity:1;" d="M 392.523438 1.511719 L 392.703125 391.804688 L 1.855469 391.804688 L 1.671875 1.511719 Z M 392.523438 1.511719 "/>
<path style=" stroke:none;fill-rule:nonzero;fill:rgb(52.198792%,81.999207%,98.399353%);fill-opacity:1;" d="M 1.609375 391.992188 C 1.609375 391.992188 393.441406 391.742188 392.207031 391.742188 C 390.960938 391.742188 392.058594 391.75 391.519531 383.640625 C 370.90625 71.28125 115.496094 2.984375 2.246094 2.238281 C 1.828125 2.234375 1.609375 2.269531 1.609375 2.269531 Z M 1.609375 391.992188 "/>
<g clip-path="url(#clip1)" clip-rule="nonzero">
<path style="fill:none;stroke-width:0.5;stroke-linecap:butt;stroke-linejoin:miter;stroke:rgb(16.499329%,16.499329%,16.499329%);stroke-opacity:1;stroke-miterlimit:4;" d="M -0.001425 0.0017125 C -0.001425 0.0017125 391.830606 0.251712 390.596231 0.251712 C 389.350138 0.251712 390.447794 0.2439 389.908731 8.353275 C 369.29545 320.71265 113.885294 389.009525 0.635294 389.755619 C 0.217325 389.759525 -0.001425 389.724369 -0.001425 389.724369 Z M -0.001425 0.0017125 " transform="matrix(1,0,0,-1,1.6108,391.9939)"/>
</g>
<path style=" stroke:none;fill-rule:nonzero;fill:rgb(100%,87.449646%,50%);fill-opacity:1;" d="M 1.964844 165.144531 C 1.964844 165.144531 4.039062 165.382812 6 165.453125 C 91.996094 168.449219 222.480469 230.933594 227.988281 387.402344 C 228.152344 392.164062 228.292969 392.0625 228.292969 392.0625 C 1.855469 391.804688 1.8125 392.027344 1.8125 392.027344 Z M 1.964844 165.144531 "/>
<g clip-path="url(#clip2)" clip-rule="nonzero">
<path style="fill:none;stroke-width:0.5;stroke-linecap:butt;stroke-linejoin:miter;stroke:rgb(16.499329%,16.499329%,16.499329%);stroke-opacity:1;stroke-miterlimit:4;" d="M 0.00144375 -0.00173125 C 0.00144375 -0.00173125 2.075662 -0.240013 4.0366 -0.310325 C 90.032694 -3.306419 220.517069 -65.790794 226.024881 -222.259544 C 226.188944 -227.021263 226.329569 -226.9197 226.329569 -226.9197 C -0.107931 -226.661888 -0.1509 -226.884544 -0.1509 -226.884544 Z M 0.00144375 -0.00173125 " transform="matrix(1,0,0,-1,1.9634,165.1428)"/>
</g>
<path style=" stroke:none;fill-rule:nonzero;fill:rgb(89.7995%,91.398621%,93.299866%);fill-opacity:1;" d="M 1.785156 240.777344 C 1.785156 240.777344 3.101562 241.097656 5.53125 241.160156 C 34.996094 241.933594 145.988281 263.929688 151.992188 390.902344 C 152.140625 394.082031 151.921875 392.0625 151.921875 392.0625 C 1.523438 392.140625 1.8125 392.027344 1.8125 392.027344 Z M 1.785156 240.777344 "/>
<g clip-path="url(#clip3)" clip-rule="nonzero">
<path style="fill:none;stroke-width:0.5;stroke-linecap:butt;stroke-linejoin:miter;stroke:rgb(16.499329%,16.499329%,16.499329%);stroke-opacity:1;stroke-miterlimit:4;" d="M -0.00194375 0.00175625 C -0.00194375 0.00175625 1.314462 -0.318556 3.74415 -0.381056 C 33.208994 -1.154494 144.201181 -23.150588 150.205087 -150.123244 C 150.353525 -153.302931 150.134775 -151.2834 150.134775 -151.2834 C -0.263663 -151.361525 0.0254 -151.248244 0.0254 -151.248244 Z M -0.00194375 0.00175625 " transform="matrix(1,0,0,-1,1.7871,240.7791)"/>
</g>
<path style=" stroke:none;fill-rule:nonzero;fill:rgb(74.499512%,68.199158%,83.099365%);fill-opacity:1;" d="M 1.792969 301.910156 C 1.792969 301.910156 84.707031 297.328125 92.582031 390.265625 L 92.742188 392.140625 C 1.523438 392.140625 1.792969 392.199219 1.792969 392.199219 Z M 1.792969 301.910156 "/>
<g clip-path="url(#clip4)" clip-rule="nonzero">
<path style="fill:none;stroke-width:0.5;stroke-linecap:butt;stroke-linejoin:miter;stroke:rgb(51.998901%,51.998901%,51.998901%);stroke-opacity:1;stroke-miterlimit:4;" d="M -0.00093125 0.00074375 C -0.00093125 0.00074375 82.913131 4.582775 90.788131 -88.354725 L 90.948288 -90.229725 C -0.270463 -90.229725 -0.00093125 -90.288319 -0.00093125 -90.288319 Z M -0.00093125 0.00074375 " transform="matrix(1,0,0,-1,1.7939,301.9109)"/>
</g>
<path style="fill-rule:nonzero;fill:rgb(6.269836%,6.669617%,46.669006%);fill-opacity:1;stroke-width:1.042;stroke-linecap:butt;stroke-linejoin:miter;stroke:rgb(100%,100%,100%);stroke-opacity:1;stroke-miterlimit:4;" d="M -0.001475 -0.00020625 C -7.685069 -5.1213 -17.685069 -6.953331 -26.962412 -6.953331 C -53.802256 -6.953331 -69.899912 9.999794 -69.899912 36.710731 C -69.899912 64.156044 -49.646006 79.765419 -23.903819 79.765419 C -15.001475 79.765419 -5.853037 77.695106 2.318838 74.156044 C 1.096181 71.109169 0.365713 67.937294 -0.243662 64.765419 L -1.099131 64.644325 C -2.806162 66.835731 -11.841319 75.132606 -24.399912 75.132606 C -46.837412 75.132606 -57.938975 56.956825 -57.938975 36.22245 C -57.938975 12.804481 -44.524912 -2.195519 -25.247569 -2.195519 C -12.0796 -2.195519 -1.8296 5.609169 0.611806 7.683388 Z M -0.001475 -0.00020625 " transform="matrix(1,0,0,-1,101.5796,128.0037)"/>
<path style="fill-rule:nonzero;fill:rgb(6.269836%,6.669617%,46.669006%);fill-opacity:1;stroke-width:1.042;stroke-linecap:butt;stroke-linejoin:miter;stroke:rgb(100%,100%,100%);stroke-opacity:1;stroke-miterlimit:4;" d="M -0.0004875 0.00119375 C 3.171387 -30.123806 6.589356 -60.131619 9.878419 -83.428494 C 7.675294 -83.303494 5.976075 -83.0574 4.136231 -83.0574 C 2.198731 -83.0574 0.245606 -83.303494 -1.586425 -83.428494 C -3.660644 -58.908963 -6.10205 -32.565213 -7.812988 -20.490994 C -21.957519 -45.737088 -32.453613 -65.248806 -39.770019 -82.084744 L -41.109863 -82.084744 L -47.8208 -68.299588 C -55.6333 -52.205838 -64.168456 -36.350369 -72.465331 -20.490994 C -75.148925 -44.27615 -78.437988 -68.424588 -78.437988 -83.428494 C -80.031738 -83.303494 -81.367675 -83.0574 -82.711425 -83.0574 C -84.28955 -83.0574 -85.6333 -83.303494 -87.10205 -83.428494 C -83.922363 -63.791775 -76.613769 -12.803494 -75.387206 0.00119375 L -72.219238 0.00119375 C -62.453613 -19.393338 -50.750488 -42.323025 -37.691894 -63.912869 C -26.105956 -43.053494 -14.8833 -21.834744 -2.562988 0.00119375 Z M -0.0004875 0.00119375 " transform="matrix(1,0,0,-1,200.8833,50.0676)"/>
<path style="fill-rule:nonzero;fill:rgb(6.269836%,6.669617%,46.669006%);fill-opacity:1;stroke-width:1.042;stroke-linecap:butt;stroke-linejoin:miter;stroke:rgb(100%,100%,100%);stroke-opacity:1;stroke-miterlimit:4;" d="M 0.00100625 -0.00124375 C 4.762725 -7.805931 10.2471 -12.688744 19.770537 -12.688744 C 29.649444 -12.688744 36.71585 -4.516869 36.71585 5.123756 C 36.71585 27.80735 -1.456025 17.80735 -1.456025 45.36985 C -1.456025 61.108131 10.981475 68.787819 25.6221 68.787819 C 31.481475 68.787819 38.5596 66.959694 43.063506 62.936256 C 41.598662 59.764381 40.751006 56.346413 39.774444 52.93235 L 38.5596 52.93235 C 35.989287 59.518288 30.626006 63.545631 23.422881 63.545631 C 15.008819 63.545631 8.0596 57.93235 8.0596 49.272194 C 8.0596 26.834694 46.477569 35.858131 46.477569 9.877663 C 46.477569 -7.563744 32.942412 -17.930931 16.352569 -17.930931 C 10.376006 -17.930931 0.610381 -15.368431 -3.530244 -10.860619 C -2.3154 -7.321556 -1.709931 -3.657494 -1.22165 -0.00124375 Z M 0.00100625 -0.00124375 " transform="matrix(1,0,0,-1,225.8779,117.0261)"/>
<path style=" stroke:none;fill-rule:nonzero;fill:rgb(57.299805%,89.7995%,41.19873%);fill-opacity:1;" d="M 1.78125 306.425781 C 1.78125 306.425781 80.550781 302.074219 88.03125 390.367188 L 88.179688 392.140625 C 1.523438 392.140625 1.78125 392.199219 1.78125 392.199219 Z M 1.78125 306.425781 "/>
<g clip-path="url(#clip5)" clip-rule="nonzero">
<path style="fill:none;stroke-width:0.5;stroke-linecap:butt;stroke-linejoin:miter;stroke:rgb(16.499329%,16.499329%,16.499329%);stroke-opacity:1;stroke-miterlimit:4;" d="M 0.00095 0.00171875 C 0.00095 0.00171875 78.770481 4.353281 86.25095 -83.939687 L 86.399388 -85.713125 C -0.256863 -85.713125 0.00095 -85.771719 0.00095 -85.771719 Z M 0.00095 0.00171875 " transform="matrix(1,0,0,-1,1.7803,306.4275)"/>
</g>
<path style=" stroke:none;fill-rule:nonzero;fill:rgb(57.299805%,89.7995%,41.19873%);fill-opacity:1;" d="M 1.761719 347.054688 C 1.761719 347.054688 43.207031 344.761719 47.152344 391.234375 L 47.226562 392.171875 C 1.523438 392.140625 1.761719 392.199219 1.761719 392.199219 Z M 1.761719 347.054688 "/>
<g clip-path="url(#clip6)" clip-rule="nonzero">
<path style="fill:none;stroke-width:0.5;stroke-linecap:butt;stroke-linejoin:miter;stroke:rgb(16.499329%,16.499329%,16.499329%);stroke-opacity:1;stroke-miterlimit:4;" d="M 0.00191875 -0.0001875 C 0.00191875 -0.0001875 41.447231 2.292781 45.392544 -44.179875 L 45.466763 -45.117375 C -0.236363 -45.086125 0.00191875 -45.144719 0.00191875 -45.144719 Z M 0.00191875 -0.0001875 " transform="matrix(1,0,0,-1,1.7598,347.0545)"/>
</g>
<path style=" stroke:none;fill-rule:nonzero;fill:rgb(67.799377%,92.199707%,56.098938%);fill-opacity:1;" d="M 1.761719 368.65625 C 1.761719 368.65625 23.378906 367.464844 25.425781 391.695312 L 25.46875 392.183594 C 1.523438 392.140625 1.761719 392.199219 1.761719 392.199219 Z M 1.761719 368.65625 "/>
<g clip-path="url(#clip7)" clip-rule="nonzero">
<path style="fill:none;stroke-width:0.5;stroke-linecap:butt;stroke-linejoin:miter;stroke:rgb(51.998901%,51.998901%,51.998901%);stroke-opacity:1;stroke-miterlimit:4;" d="M 0.00191875 -0.00025 C 0.00191875 -0.00025 21.619106 1.191156 23.665981 -23.039312 L 23.70895 -23.527594 C -0.236363 -23.484625 0.00191875 -23.543219 0.00191875 -23.543219 Z M 0.00191875 -0.00025 " transform="matrix(1,0,0,-1,1.7598,368.656)"/>
</g>
<g clip-path="url(#clip8)" clip-rule="nonzero">
<path style="fill:none;stroke-width:9.048;stroke-linecap:round;stroke-linejoin:round;stroke:rgb(100%,100%,100%);stroke-opacity:1;stroke-miterlimit:4;" d="M -0.00004375 0.00174375 C -0.00004375 0.00174375 46.539019 100.740025 173.605425 130.329869 C 246.796831 147.361119 316.785113 186.689244 348.785113 224.013463 " transform="matrix(1,0,0,-1,5.0352,388.5369)"/>
</g>
<g clip-path="url(#clip9)" clip-rule="nonzero">
<path style="fill:none;stroke-width:9.048;stroke-linecap:round;stroke-linejoin:round;stroke:rgb(100%,100%,100%);stroke-opacity:1;stroke-miterlimit:4;" d="M 0.0000125 0.00175625 C 0.0000125 0.00175625 -77.996081 -91.31465 -199.433581 -161.349806 C -322.296863 -232.205275 -342.972644 -318.068556 -342.972644 -318.068556 " transform="matrix(1,0,0,-1,348.0078,70.4666)"/>
</g>
<g clip-path="url(#clip10)" clip-rule="nonzero">
<path style="fill:none;stroke-width:9.048;stroke-linecap:round;stroke-linejoin:round;stroke:rgb(100%,100%,100%);stroke-opacity:1;stroke-miterlimit:4;" d="M -0.00004375 0.00174375 C -0.00004375 0.00174375 51.070269 86.732213 154.613237 80.892369 C 236.238237 76.294713 309.800738 108.118931 332.800738 155.677525 " transform="matrix(1,0,0,-1,5.0352,388.5369)"/>
</g>
<g clip-path="url(#clip11)" clip-rule="nonzero">
<path style="fill:none;stroke-width:9.048;stroke-linecap:round;stroke-linejoin:round;stroke:rgb(100%,100%,100%);stroke-opacity:1;stroke-miterlimit:4;" d="M -0.00004375 0.00174375 C -0.00004375 0.00174375 40.503862 69.954869 166.640581 41.548619 C 280.804644 15.853306 288.031206 49.482213 306.0273 68.806431 " transform="matrix(1,0,0,-1,5.0352,388.5369)"/>
</g>
<path style="fill:none;stroke-width:6.032;stroke-linecap:round;stroke-linejoin:round;stroke:rgb(94.099426%,14.099121%,4.299927%);stroke-opacity:1;stroke-miterlimit:4;" d="M 0.0019375 0.00174375 C 0.0019375 0.00174375 46.541 100.740025 173.6035 130.329869 C 246.794906 147.361119 316.783187 186.689244 348.783187 224.013463 " transform="matrix(1,0,0,-1,5.1465,388.5369)"/>
<path style="fill:none;stroke-width:6.032;stroke-linecap:round;stroke-linejoin:round;stroke:rgb(94.099426%,14.099121%,4.299927%);stroke-opacity:1;stroke-miterlimit:4;" d="M -0.0019125 0.00175625 C -0.0019125 0.00175625 -77.9941 -91.31465 -199.435506 -161.349806 C -322.298788 -232.205275 -342.974569 -318.068556 -342.974569 -318.068556 " transform="matrix(1,0,0,-1,348.1191,70.4666)"/>
<path style="fill:none;stroke-width:6.032;stroke-linecap:round;stroke-linejoin:round;stroke:rgb(94.099426%,14.099121%,4.299927%);stroke-opacity:1;stroke-miterlimit:4;" d="M 0.0019375 0.00174375 C 0.0019375 0.00174375 51.068344 86.732213 154.611312 80.892369 C 236.236312 76.294713 309.798812 108.118931 332.802719 155.677525 " transform="matrix(1,0,0,-1,5.1465,388.5369)"/>
<path style="fill:none;stroke-width:6.032;stroke-linecap:round;stroke-linejoin:round;stroke:rgb(94.099426%,14.099121%,4.299927%);stroke-opacity:1;stroke-miterlimit:4;" d="M 0.0019375 0.00174375 C 0.0019375 0.00174375 40.505844 69.954869 166.642562 41.548619 C 280.802719 15.853306 288.029281 49.482213 306.029281 68.806431 " transform="matrix(1,0,0,-1,5.1465,388.5369)"/>
<g clip-path="url(#clip12)" clip-rule="nonzero">
<path style="fill:none;stroke-width:3.016;stroke-linecap:butt;stroke-linejoin:round;stroke:rgb(0%,0%,0%);stroke-opacity:1;stroke-miterlimit:4;" d="M 391.804688 392.02125 L 1.523438 392.02125 L 1.523438 1.474375 L 391.804688 1.474375 Z M 391.804688 392.02125 " transform="matrix(1,0,0,-1,0,393.615)"/>
</g>
<path style=" stroke:none;fill-rule:nonzero;fill:rgb(6.269836%,6.669617%,46.669006%);fill-opacity:1;" d="M 375.636719 236.609375 C 373.367188 237.09375 372.953125 238.980469 372.953125 240.222656 C 372.953125 242.5625 374.683594 244.453125 378.082031 244.453125 C 381.121094 244.453125 383.460938 243.375 383.460938 240.171875 C 383.460938 239.039062 382.921875 237.078125 379.917969 236.480469 L 379.917969 234.792969 C 384.792969 235.511719 385.007812 239.46875 385.007812 240.441406 C 385.007812 243.375 383.101562 246.25 378.136719 246.25 C 374.160156 246.25 371.40625 243.984375 371.40625 240.222656 C 371.40625 236.894531 373.476562 235.171875 375.636719 234.917969 Z M 375.636719 236.609375 "/>
<path style=" stroke:none;fill-rule:nonzero;fill:rgb(6.269836%,6.669617%,46.669006%);fill-opacity:1;" d="M 383.550781 229.046875 C 383.550781 226.78125 381.210938 226.3125 379.953125 226.3125 C 378.695312 226.3125 376.355469 226.78125 376.355469 229.046875 C 376.355469 231.3125 378.695312 231.78125 379.953125 231.78125 C 381.210938 231.78125 383.550781 231.3125 383.550781 229.046875 M 374.988281 229.046875 C 374.988281 226.042969 377.523438 224.675781 379.953125 224.675781 C 382.382812 224.675781 384.917969 226.042969 384.917969 229.046875 C 384.917969 232.050781 382.382812 233.417969 379.953125 233.417969 C 377.523438 233.417969 374.988281 232.050781 374.988281 229.046875 "/>
<path style=" stroke:none;fill-rule:nonzero;fill:rgb(6.269836%,6.669617%,46.669006%);fill-opacity:1;" d="M 375.257812 222.871094 L 375.257812 221.378906 L 376.589844 221.378906 L 376.589844 221.34375 C 376.085938 221 374.988281 220.191406 374.988281 218.5 C 374.988281 216.808594 376.015625 216.269531 376.515625 216 C 375.636719 215.207031 374.988281 214.578125 374.988281 213.121094 C 374.988281 212.113281 375.511719 210.207031 378.152344 210.207031 L 384.667969 210.207031 L 384.667969 211.789062 L 378.585938 211.789062 C 377.289062 211.789062 376.410156 212.183594 376.410156 213.535156 C 376.410156 214.867188 377.667969 215.746094 378.929688 215.746094 L 384.667969 215.746094 L 384.667969 217.332031 L 378.152344 217.332031 C 377.363281 217.332031 376.410156 217.636719 376.410156 218.808594 C 376.410156 219.707031 376.984375 221.289062 379.539062 221.289062 L 384.667969 221.289062 L 384.667969 222.871094 Z M 375.257812 222.871094 "/>
<path style=" stroke:none;fill-rule:nonzero;fill:rgb(6.269836%,6.669617%,46.669006%);fill-opacity:1;" d="M 383.570312 203.925781 C 383.570312 202.195312 382.003906 201.386719 379.933594 201.386719 C 378.730469 201.386719 376.410156 201.511719 376.410156 203.960938 C 376.410156 206.246094 378.875 206.496094 380.402344 206.496094 C 382.902344 206.496094 383.570312 204.929688 383.570312 203.925781 M 375.257812 208.007812 L 375.257812 206.515625 L 376.589844 206.515625 L 376.589844 206.480469 C 376.050781 206.101562 374.988281 205.382812 374.988281 203.671875 C 374.988281 201.171875 377.039062 199.75 379.683594 199.75 C 381.933594 199.75 384.9375 200.6875 384.9375 203.886719 C 384.9375 205.148438 384.34375 205.976562 383.675781 206.386719 L 383.675781 206.425781 L 388.390625 206.425781 L 388.390625 208.007812 Z M 375.257812 208.007812 "/>
<path style=" stroke:none;fill-rule:nonzero;fill:rgb(6.269836%,6.669617%,46.669006%);fill-opacity:1;" d="M 379.863281 192.136719 C 380.0625 192.386719 380.207031 192.785156 380.457031 194.746094 C 380.566406 195.519531 380.800781 196.761719 381.984375 196.761719 C 383.011719 196.761719 383.625 196.238281 383.625 195.050781 C 383.625 193.574219 382.671875 192.136719 381.410156 192.136719 Z M 378.117188 197.929688 C 375.871094 197.859375 374.988281 196.367188 374.988281 194.042969 C 374.988281 193.289062 375.203125 190.554688 377.613281 190.554688 L 383.03125 190.554688 C 383.425781 190.554688 383.585938 190.355469 383.585938 190.03125 C 383.585938 189.886719 383.550781 189.691406 383.515625 189.511719 L 384.667969 189.511719 C 384.738281 189.78125 384.847656 190.015625 384.847656 190.375 C 384.847656 191.777344 384.128906 191.992188 383.40625 192.046875 C 384.074219 192.660156 384.9375 193.613281 384.9375 195.449219 C 384.9375 197.175781 383.839844 198.398438 382.21875 198.398438 C 381.429688 198.398438 379.59375 198.164062 379.269531 195.535156 L 378.945312 192.929688 C 378.910156 192.550781 378.765625 192.101562 377.832031 192.101562 C 376.839844 192.101562 376.300781 192.820312 376.300781 194.316406 C 376.300781 196.113281 377.398438 196.367188 378.117188 196.472656 Z M 378.117188 197.929688 "/>
<path style=" stroke:none;fill-rule:nonzero;fill:rgb(6.269836%,6.669617%,46.669006%);fill-opacity:1;" d="M 378.425781 181.988281 C 377.164062 182.183594 376.410156 182.886719 376.410156 184.21875 C 376.410156 186.179688 378.28125 186.808594 379.953125 186.808594 C 381.570312 186.808594 383.570312 186.410156 383.570312 184.234375 C 383.570312 183.175781 382.777344 182.257812 381.339844 181.988281 L 381.339844 180.457031 C 382.832031 180.621094 384.9375 181.535156 384.9375 184.289062 C 384.9375 186.933594 382.941406 188.5 380.222656 188.5 C 377.308594 188.5 374.988281 187.09375 374.988281 183.984375 C 374.988281 181.519531 376.785156 180.585938 378.425781 180.457031 Z M 378.425781 181.988281 "/>
<path style=" stroke:none;fill-rule:nonzero;fill:rgb(6.269836%,6.669617%,46.669006%);fill-opacity:1;" d="M 376.570312 176.925781 L 382.6875 176.925781 C 383.425781 176.925781 383.425781 176.296875 383.425781 175.972656 L 383.425781 175.414062 L 384.667969 175.414062 C 384.71875 175.992188 384.792969 176.441406 384.792969 176.601562 C 384.792969 178.167969 383.910156 178.507812 382.777344 178.507812 L 376.570312 178.507812 L 376.570312 179.785156 L 375.257812 179.785156 L 375.257812 178.507812 L 372.632812 178.507812 L 372.632812 176.925781 L 375.257812 176.925781 L 375.257812 175.414062 L 376.570312 175.414062 Z M 376.570312 176.925781 "/>
<path style=" stroke:none;fill-rule:nonzero;fill:rgb(6.269836%,6.669617%,46.669006%);fill-opacity:1;" d="M 384.667969 158.039062 L 377.039062 158.039062 C 376.660156 158.039062 375.023438 158 373.820312 158 L 373.820312 158.039062 L 384.667969 161.671875 L 384.667969 163.398438 L 373.835938 167.03125 L 373.835938 167.066406 C 375.023438 167.066406 376.660156 167.03125 377.039062 167.03125 L 384.667969 167.03125 L 384.667969 168.726562 L 371.75 168.726562 L 371.75 166.222656 L 382.671875 162.535156 L 382.671875 162.5 L 371.75 158.828125 L 371.75 156.347656 L 384.667969 156.347656 Z M 384.667969 158.039062 "/>
<path style=" stroke:none;fill-rule:nonzero;fill:rgb(6.269836%,6.669617%,46.669006%);fill-opacity:1;" d="M 384.667969 147.742188 L 383.300781 147.742188 L 383.265625 147.777344 C 384.359375 148.445312 384.9375 149.253906 384.9375 150.765625 C 384.9375 152.152344 384.269531 153.824219 382.023438 153.824219 L 375.257812 153.824219 L 375.257812 152.242188 L 381.5 152.242188 C 383.046875 152.242188 383.570312 151.449219 383.570312 150.425781 C 383.570312 148.429688 381.804688 147.832031 380.4375 147.832031 L 375.257812 147.832031 L 375.257812 146.25 L 384.667969 146.25 Z M 384.667969 147.742188 "/>
<path style=" stroke:none;fill-rule:nonzero;fill:rgb(6.269836%,6.669617%,46.669006%);fill-opacity:1;" d="M 383.550781 140.039062 C 383.550781 137.773438 381.210938 137.304688 379.953125 137.304688 C 378.695312 137.304688 376.355469 137.773438 376.355469 140.039062 C 376.355469 142.308594 378.695312 142.773438 379.953125 142.773438 C 381.210938 142.773438 383.550781 142.308594 383.550781 140.039062 M 374.988281 140.039062 C 374.988281 137.035156 377.523438 135.667969 379.953125 135.667969 C 382.382812 135.667969 384.917969 137.035156 384.917969 140.039062 C 384.917969 143.042969 382.382812 144.410156 379.953125 144.410156 C 377.523438 144.410156 374.988281 143.042969 374.988281 140.039062 "/>
<path style=" stroke:none;fill-rule:nonzero;fill:rgb(6.269836%,6.669617%,46.669006%);fill-opacity:1;" d="M 384.667969 126.199219 L 384.667969 127.785156 L 378.875 127.785156 C 377.238281 127.785156 376.410156 128.25 376.410156 129.800781 C 376.410156 130.699219 376.984375 132.28125 379.539062 132.28125 L 384.667969 132.28125 L 384.667969 133.863281 L 375.257812 133.863281 L 375.257812 132.371094 L 376.589844 132.371094 L 376.589844 132.335938 C 376.085938 131.992188 374.988281 131.113281 374.988281 129.492188 C 374.988281 128.035156 375.582031 126.199219 378.261719 126.199219 Z M 384.667969 126.199219 "/>
<path style=" stroke:none;fill-rule:nonzero;fill:rgb(6.269836%,6.669617%,46.669006%);fill-opacity:1;" d="M 375.527344 110.871094 C 373.53125 110.960938 372.902344 112.613281 372.902344 114.070312 C 372.902344 115.167969 373.207031 117.023438 375.167969 117.023438 C 376.265625 117.023438 376.625 116.25 376.804688 115.492188 L 377.648438 111.808594 C 378.046875 110.132812 379.054688 108.871094 381.105469 108.871094 C 384.164062 108.871094 385.007812 111.71875 385.007812 113.929688 C 385.007812 116.320312 384.289062 117.257812 383.765625 117.832031 C 382.777344 118.929688 381.699219 119.144531 380.492188 119.144531 L 380.492188 117.507812 C 382.832031 117.507812 383.515625 115.601562 383.515625 113.945312 C 383.515625 112.6875 383.191406 110.5625 381.339844 110.5625 C 379.988281 110.5625 379.558594 111.195312 379.054688 113.316406 L 378.441406 115.960938 C 378.246094 116.808594 377.648438 118.714844 375.402344 118.714844 C 373.386719 118.714844 371.410156 117.398438 371.410156 114.269531 C 371.410156 109.757812 374.105469 109.304688 375.527344 109.234375 Z M 375.527344 110.871094 "/>
<path style=" stroke:none;fill-rule:nonzero;fill:rgb(6.269836%,6.669617%,46.669006%);fill-opacity:1;" d="M 383.550781 103.019531 C 383.550781 100.753906 381.210938 100.285156 379.953125 100.285156 C 378.695312 100.285156 376.355469 100.753906 376.355469 103.019531 C 376.355469 105.289062 378.695312 105.753906 379.953125 105.753906 C 381.210938 105.753906 383.550781 105.289062 383.550781 103.019531 M 374.988281 103.019531 C 374.988281 100.015625 377.523438 98.648438 379.953125 98.648438 C 382.382812 98.648438 384.917969 100.015625 384.917969 103.019531 C 384.917969 106.023438 382.382812 107.390625 379.953125 107.390625 C 377.523438 107.390625 374.988281 106.023438 374.988281 103.019531 "/>
<path style=" stroke:none;fill-rule:nonzero;fill:rgb(6.269836%,6.669617%,46.669006%);fill-opacity:1;" d="M 384.667969 96.808594 L 371.75 96.808594 L 371.75 95.226562 L 384.667969 95.226562 Z M 384.667969 96.808594 "/>
<path style=" stroke:none;fill-rule:nonzero;fill:rgb(6.269836%,6.669617%,46.669006%);fill-opacity:1;" d="M 379.214844 86.375 C 377.757812 86.464844 376.410156 87.074219 376.410156 89 C 376.410156 90.457031 377.757812 91.609375 379.214844 91.609375 Z M 381.714844 84.863281 C 382.164062 84.917969 383.496094 85.351562 384.289062 86.535156 C 384.578125 86.96875 384.9375 87.578125 384.9375 89.09375 C 384.9375 91.734375 382.941406 93.300781 380.222656 93.300781 C 377.308594 93.300781 374.988281 91.898438 374.988281 88.785156 C 374.988281 86.070312 377.148438 84.738281 380.476562 84.738281 L 380.476562 91.609375 C 382.4375 91.609375 383.570312 90.691406 383.570312 88.875 C 383.570312 87.382812 382.417969 86.5 381.714844 86.445312 Z M 381.714844 84.863281 "/>
<path style=" stroke:none;fill-rule:nonzero;fill:rgb(6.269836%,6.669617%,46.669006%);fill-opacity:1;" d="M 384.667969 75.179688 L 384.667969 76.765625 L 378.875 76.765625 C 377.238281 76.765625 376.410156 77.230469 376.410156 78.777344 C 376.410156 79.679688 376.984375 81.261719 379.539062 81.261719 L 384.667969 81.261719 L 384.667969 82.847656 L 375.257812 82.847656 L 375.257812 81.351562 L 376.589844 81.351562 L 376.589844 81.316406 C 376.085938 80.972656 374.988281 80.09375 374.988281 78.472656 C 374.988281 77.015625 375.582031 75.179688 378.261719 75.179688 Z M 384.667969 75.179688 "/>
<path style=" stroke:none;fill-rule:nonzero;fill:rgb(6.269836%,6.669617%,46.669006%);fill-opacity:1;" d="M 383.550781 69.007812 C 383.550781 66.738281 381.210938 66.273438 379.953125 66.273438 C 378.695312 66.273438 376.355469 66.738281 376.355469 69.007812 C 376.355469 71.273438 378.695312 71.742188 379.953125 71.742188 C 381.210938 71.742188 383.550781 71.273438 383.550781 69.007812 M 374.988281 69.007812 C 374.988281 66.003906 377.523438 64.632812 379.953125 64.632812 C 382.382812 64.632812 384.917969 66.003906 384.917969 69.007812 C 384.917969 72.011719 382.382812 73.378906 379.953125 73.378906 C 377.523438 73.378906 374.988281 72.011719 374.988281 69.007812 "/>
<path style=" stroke:none;fill-rule:nonzero;fill:rgb(6.269836%,6.669617%,46.669006%);fill-opacity:1;" d="M 373.550781 62.796875 L 371.75 62.796875 L 371.75 61.214844 L 373.550781 61.214844 Z M 384.667969 62.796875 L 375.257812 62.796875 L 375.257812 61.214844 L 384.667969 61.214844 Z M 384.667969 62.796875 "/>
<path style=" stroke:none;fill-rule:nonzero;fill:rgb(6.269836%,6.669617%,46.669006%);fill-opacity:1;" d="M 383.570312 55.203125 C 383.570312 54.195312 382.902344 52.628906 380.402344 52.628906 C 378.875 52.628906 376.410156 52.882812 376.410156 55.167969 C 376.410156 57.613281 378.730469 57.742188 379.933594 57.742188 C 382.003906 57.742188 383.570312 56.929688 383.570312 55.203125 M 384.667969 51.03125 L 384.667969 52.523438 L 383.371094 52.523438 L 383.371094 52.558594 C 384.648438 53.242188 384.9375 54.324219 384.9375 55.238281 C 384.9375 58.441406 381.933594 59.378906 379.683594 59.378906 C 377.039062 59.378906 374.988281 57.957031 374.988281 55.457031 C 374.988281 53.746094 376.050781 53.027344 376.589844 52.648438 L 376.464844 52.613281 L 371.75 52.613281 L 371.75 51.03125 Z M 384.667969 51.03125 "/>
</g>
</svg>
