<?xml version="1.0" encoding="UTF-8"?>
<svg xmlns="http://www.w3.org/2000/svg" xmlns:xlink="http://www.w3.org/1999/xlink" width="607.5pt" height="405pt" viewBox="0 0 607.5 405" version="1.1">
<g id="surface1">
<path style=" stroke:none;fill-rule:nonzero;fill:rgb(0%,19.999695%,59.999084%);fill-opacity:1;" d="M 0 0 L 607.5 0 L 607.5 405 L 0 405 Z M 0 0 "/>
<path style=" stroke:none;fill-rule:nonzero;fill:rgb(100%,79.998779%,0%);fill-opacity:1;" d="M 303.75 45 L 296.796875 66.398438 L 307.496094 69.875 Z M 303.75 45 "/>
<path style=" stroke:none;fill-rule:nonzero;fill:rgb(100%,79.998779%,0%);fill-opacity:1;" d="M 303.75 45 L 310.703125 66.398438 L 300.003906 69.875 Z M 303.75 45 "/>
<path style=" stroke:none;fill-rule:nonzero;fill:rgb(100%,79.998779%,0%);fill-opacity:1;" d="M 325.148438 60.546875 L 302.648438 60.546875 L 302.648438 71.796875 Z M 325.148438 60.546875 "/>
<path style=" stroke:none;fill-rule:nonzero;fill:rgb(100%,79.998779%,0%);fill-opacity:1;" d="M 325.148438 60.546875 L 306.945312 73.773438 L 300.332031 64.671875 Z M 325.148438 60.546875 "/>
<path style=" stroke:none;fill-rule:nonzero;fill:rgb(100%,79.998779%,0%);fill-opacity:1;" d="M 316.976562 85.703125 L 310.023438 64.304688 L 299.324219 67.78125 Z M 316.976562 85.703125 "/>
<path style=" stroke:none;fill-rule:nonzero;fill:rgb(100%,79.998779%,0%);fill-opacity:1;" d="M 316.976562 85.703125 L 298.773438 72.476562 L 305.386719 63.375 Z M 316.976562 85.703125 "/>
<path style=" stroke:none;fill-rule:nonzero;fill:rgb(100%,79.998779%,0%);fill-opacity:1;" d="M 282.351562 60.546875 L 304.851562 60.546875 L 304.851562 71.796875 Z M 282.351562 60.546875 "/>
<path style=" stroke:none;fill-rule:nonzero;fill:rgb(100%,79.998779%,0%);fill-opacity:1;" d="M 282.351562 60.546875 L 300.554688 73.773438 L 307.167969 64.671875 Z M 282.351562 60.546875 "/>
<path style=" stroke:none;fill-rule:nonzero;fill:rgb(100%,79.998779%,0%);fill-opacity:1;" d="M 290.523438 85.703125 L 297.476562 64.304688 L 308.175781 67.78125 Z M 290.523438 85.703125 "/>
<path style=" stroke:none;fill-rule:nonzero;fill:rgb(100%,79.998779%,0%);fill-opacity:1;" d="M 290.523438 85.703125 L 308.726562 72.476562 L 302.113281 63.375 Z M 290.523438 85.703125 "/>
<path style=" stroke:none;fill-rule:nonzero;fill:rgb(100%,79.998779%,0%);fill-opacity:1;" d="M 303.75 315 L 296.796875 336.398438 L 307.496094 339.875 Z M 303.75 315 "/>
<path style=" stroke:none;fill-rule:nonzero;fill:rgb(100%,79.998779%,0%);fill-opacity:1;" d="M 303.75 315 L 310.703125 336.398438 L 300.003906 339.875 Z M 303.75 315 "/>
<path style=" stroke:none;fill-rule:nonzero;fill:rgb(100%,79.998779%,0%);fill-opacity:1;" d="M 325.148438 330.546875 L 302.648438 330.546875 L 302.648438 341.796875 Z M 325.148438 330.546875 "/>
<path style=" stroke:none;fill-rule:nonzero;fill:rgb(100%,79.998779%,0%);fill-opacity:1;" d="M 325.148438 330.546875 L 306.945312 343.773438 L 300.332031 334.671875 Z M 325.148438 330.546875 "/>
<path style=" stroke:none;fill-rule:nonzero;fill:rgb(100%,79.998779%,0%);fill-opacity:1;" d="M 316.976562 355.703125 L 310.023438 334.304688 L 299.324219 337.78125 Z M 316.976562 355.703125 "/>
<path style=" stroke:none;fill-rule:nonzero;fill:rgb(100%,79.998779%,0%);fill-opacity:1;" d="M 316.976562 355.703125 L 298.773438 342.476562 L 305.386719 333.375 Z M 316.976562 355.703125 "/>
<path style=" stroke:none;fill-rule:nonzero;fill:rgb(100%,79.998779%,0%);fill-opacity:1;" d="M 282.351562 330.546875 L 304.851562 330.546875 L 304.851562 341.796875 Z M 282.351562 330.546875 "/>
<path style=" stroke:none;fill-rule:nonzero;fill:rgb(100%,79.998779%,0%);fill-opacity:1;" d="M 282.351562 330.546875 L 300.554688 343.773438 L 307.167969 334.671875 Z M 282.351562 330.546875 "/>
<path style=" stroke:none;fill-rule:nonzero;fill:rgb(100%,79.998779%,0%);fill-opacity:1;" d="M 290.523438 355.703125 L 297.476562 334.304688 L 308.175781 337.78125 Z M 290.523438 355.703125 "/>
<path style=" stroke:none;fill-rule:nonzero;fill:rgb(100%,79.998779%,0%);fill-opacity:1;" d="M 290.523438 355.703125 L 308.726562 342.476562 L 302.113281 333.375 Z M 290.523438 355.703125 "/>
<path style=" stroke:none;fill-rule:nonzero;fill:rgb(100%,79.998779%,0%);fill-opacity:1;" d="M 168.75 180 L 161.796875 201.398438 L 172.496094 204.875 Z M 168.75 180 "/>
<path style=" stroke:none;fill-rule:nonzero;fill:rgb(100%,79.998779%,0%);fill-opacity:1;" d="M 168.75 180 L 175.703125 201.398438 L 165.003906 204.875 Z M 168.75 180 "/>
<path style=" stroke:none;fill-rule:nonzero;fill:rgb(100%,79.998779%,0%);fill-opacity:1;" d="M 190.148438 195.546875 L 167.648438 195.546875 L 167.648438 206.796875 Z M 190.148438 195.546875 "/>
<path style=" stroke:none;fill-rule:nonzero;fill:rgb(100%,79.998779%,0%);fill-opacity:1;" d="M 190.148438 195.546875 L 171.945312 208.773438 L 165.332031 199.671875 Z M 190.148438 195.546875 "/>
<path style=" stroke:none;fill-rule:nonzero;fill:rgb(100%,79.998779%,0%);fill-opacity:1;" d="M 181.976562 220.703125 L 175.023438 199.304688 L 164.324219 202.78125 Z M 181.976562 220.703125 "/>
<path style=" stroke:none;fill-rule:nonzero;fill:rgb(100%,79.998779%,0%);fill-opacity:1;" d="M 181.976562 220.703125 L 163.773438 207.476562 L 170.386719 198.375 Z M 181.976562 220.703125 "/>
<path style=" stroke:none;fill-rule:nonzero;fill:rgb(100%,79.998779%,0%);fill-opacity:1;" d="M 147.351562 195.546875 L 169.851562 195.546875 L 169.851562 206.796875 Z M 147.351562 195.546875 "/>
<path style=" stroke:none;fill-rule:nonzero;fill:rgb(100%,79.998779%,0%);fill-opacity:1;" d="M 147.351562 195.546875 L 165.554688 208.773438 L 172.167969 199.671875 Z M 147.351562 195.546875 "/>
<path style=" stroke:none;fill-rule:nonzero;fill:rgb(100%,79.998779%,0%);fill-opacity:1;" d="M 155.523438 220.703125 L 162.476562 199.304688 L 173.175781 202.78125 Z M 155.523438 220.703125 "/>
<path style=" stroke:none;fill-rule:nonzero;fill:rgb(100%,79.998779%,0%);fill-opacity:1;" d="M 155.523438 220.703125 L 173.726562 207.476562 L 167.113281 198.375 Z M 155.523438 220.703125 "/>
<path style=" stroke:none;fill-rule:nonzero;fill:rgb(100%,79.998779%,0%);fill-opacity:1;" d="M 223.023438 103.789062 L 241.226562 90.5625 L 234.613281 81.460938 Z M 223.023438 103.789062 "/>
<path style=" stroke:none;fill-rule:nonzero;fill:rgb(100%,79.998779%,0%);fill-opacity:1;" d="M 223.023438 103.789062 L 229.976562 82.390625 L 240.675781 85.867188 Z M 223.023438 103.789062 "/>
<path style=" stroke:none;fill-rule:nonzero;fill:rgb(100%,79.998779%,0%);fill-opacity:1;" d="M 214.851562 78.632812 L 233.054688 91.859375 L 239.667969 82.757812 Z M 214.851562 78.632812 "/>
<path style=" stroke:none;fill-rule:nonzero;fill:rgb(100%,79.998779%,0%);fill-opacity:1;" d="M 214.851562 78.632812 L 237.351562 78.632812 L 237.351562 89.882812 Z M 214.851562 78.632812 "/>
<path style=" stroke:none;fill-rule:nonzero;fill:rgb(100%,79.998779%,0%);fill-opacity:1;" d="M 236.25 63.085938 L 229.296875 84.484375 L 239.996094 87.960938 Z M 236.25 63.085938 "/>
<path style=" stroke:none;fill-rule:nonzero;fill:rgb(100%,79.998779%,0%);fill-opacity:1;" d="M 236.25 63.085938 L 243.203125 84.484375 L 232.503906 87.960938 Z M 236.25 63.085938 "/>
<path style=" stroke:none;fill-rule:nonzero;fill:rgb(100%,79.998779%,0%);fill-opacity:1;" d="M 249.476562 103.789062 L 231.273438 90.5625 L 237.886719 81.460938 Z M 249.476562 103.789062 "/>
<path style=" stroke:none;fill-rule:nonzero;fill:rgb(100%,79.998779%,0%);fill-opacity:1;" d="M 249.476562 103.789062 L 242.523438 82.390625 L 231.824219 85.867188 Z M 249.476562 103.789062 "/>
<path style=" stroke:none;fill-rule:nonzero;fill:rgb(100%,79.998779%,0%);fill-opacity:1;" d="M 257.648438 78.632812 L 239.445312 91.859375 L 232.832031 82.757812 Z M 257.648438 78.632812 "/>
<path style=" stroke:none;fill-rule:nonzero;fill:rgb(100%,79.998779%,0%);fill-opacity:1;" d="M 257.648438 78.632812 L 235.148438 78.632812 L 235.148438 89.882812 Z M 257.648438 78.632812 "/>
<path style=" stroke:none;fill-rule:nonzero;fill:rgb(100%,79.998779%,0%);fill-opacity:1;" d="M 200.0625 153.203125 L 193.109375 131.804688 L 182.410156 135.28125 Z M 200.0625 153.203125 "/>
<path style=" stroke:none;fill-rule:nonzero;fill:rgb(100%,79.998779%,0%);fill-opacity:1;" d="M 200.0625 153.203125 L 181.859375 139.976562 L 188.472656 130.875 Z M 200.0625 153.203125 "/>
<path style=" stroke:none;fill-rule:nonzero;fill:rgb(100%,79.998779%,0%);fill-opacity:1;" d="M 173.613281 153.203125 L 191.816406 139.976562 L 185.203125 130.875 Z M 173.613281 153.203125 "/>
<path style=" stroke:none;fill-rule:nonzero;fill:rgb(100%,79.998779%,0%);fill-opacity:1;" d="M 173.613281 153.203125 L 180.566406 131.804688 L 191.265625 135.28125 Z M 173.613281 153.203125 "/>
<path style=" stroke:none;fill-rule:nonzero;fill:rgb(100%,79.998779%,0%);fill-opacity:1;" d="M 165.4375 128.046875 L 183.640625 141.273438 L 190.253906 132.171875 Z M 165.4375 128.046875 "/>
<path style=" stroke:none;fill-rule:nonzero;fill:rgb(100%,79.998779%,0%);fill-opacity:1;" d="M 165.4375 128.046875 L 187.9375 128.046875 L 187.9375 139.296875 Z M 165.4375 128.046875 "/>
<path style=" stroke:none;fill-rule:nonzero;fill:rgb(100%,79.998779%,0%);fill-opacity:1;" d="M 208.234375 128.046875 L 190.03125 141.273438 L 183.417969 132.171875 Z M 208.234375 128.046875 "/>
<path style=" stroke:none;fill-rule:nonzero;fill:rgb(100%,79.998779%,0%);fill-opacity:1;" d="M 208.234375 128.046875 L 185.734375 128.046875 L 185.734375 139.296875 Z M 208.234375 128.046875 "/>
<path style=" stroke:none;fill-rule:nonzero;fill:rgb(100%,79.998779%,0%);fill-opacity:1;" d="M 186.835938 112.5 L 193.789062 133.898438 L 183.089844 137.375 Z M 186.835938 112.5 "/>
<path style=" stroke:none;fill-rule:nonzero;fill:rgb(100%,79.998779%,0%);fill-opacity:1;" d="M 186.835938 112.5 L 179.882812 133.898438 L 190.582031 137.375 Z M 186.835938 112.5 "/>
<path style=" stroke:none;fill-rule:nonzero;fill:rgb(100%,79.998779%,0%);fill-opacity:1;" d="M 208.234375 263.046875 L 185.734375 263.046875 L 185.734375 274.296875 Z M 208.234375 263.046875 "/>
<path style=" stroke:none;fill-rule:nonzero;fill:rgb(100%,79.998779%,0%);fill-opacity:1;" d="M 208.234375 263.046875 L 190.03125 276.273438 L 183.417969 267.171875 Z M 208.234375 263.046875 "/>
<path style=" stroke:none;fill-rule:nonzero;fill:rgb(100%,79.998779%,0%);fill-opacity:1;" d="M 200.0625 288.203125 L 193.109375 266.804688 L 182.410156 270.28125 Z M 200.0625 288.203125 "/>
<path style=" stroke:none;fill-rule:nonzero;fill:rgb(100%,79.998779%,0%);fill-opacity:1;" d="M 200.0625 288.203125 L 181.859375 274.976562 L 188.472656 265.875 Z M 200.0625 288.203125 "/>
<path style=" stroke:none;fill-rule:nonzero;fill:rgb(100%,79.998779%,0%);fill-opacity:1;" d="M 173.613281 288.203125 L 191.816406 274.976562 L 185.203125 265.875 Z M 173.613281 288.203125 "/>
<path style=" stroke:none;fill-rule:nonzero;fill:rgb(100%,79.998779%,0%);fill-opacity:1;" d="M 173.613281 288.203125 L 180.566406 266.804688 L 191.265625 270.28125 Z M 173.613281 288.203125 "/>
<path style=" stroke:none;fill-rule:nonzero;fill:rgb(100%,79.998779%,0%);fill-opacity:1;" d="M 186.835938 247.5 L 193.789062 268.898438 L 183.089844 272.375 Z M 186.835938 247.5 "/>
<path style=" stroke:none;fill-rule:nonzero;fill:rgb(100%,79.998779%,0%);fill-opacity:1;" d="M 186.835938 247.5 L 179.882812 268.898438 L 190.582031 272.375 Z M 186.835938 247.5 "/>
<path style=" stroke:none;fill-rule:nonzero;fill:rgb(100%,79.998779%,0%);fill-opacity:1;" d="M 165.4375 263.046875 L 187.9375 263.046875 L 187.9375 274.296875 Z M 165.4375 263.046875 "/>
<path style=" stroke:none;fill-rule:nonzero;fill:rgb(100%,79.998779%,0%);fill-opacity:1;" d="M 165.4375 263.046875 L 183.640625 276.273438 L 190.253906 267.171875 Z M 165.4375 263.046875 "/>
<path style=" stroke:none;fill-rule:nonzero;fill:rgb(100%,79.998779%,0%);fill-opacity:1;" d="M 257.648438 312.460938 L 235.148438 312.460938 L 235.148438 323.710938 Z M 257.648438 312.460938 "/>
<path style=" stroke:none;fill-rule:nonzero;fill:rgb(100%,79.998779%,0%);fill-opacity:1;" d="M 257.648438 312.460938 L 239.445312 325.6875 L 232.832031 316.585938 Z M 257.648438 312.460938 "/>
<path style=" stroke:none;fill-rule:nonzero;fill:rgb(100%,79.998779%,0%);fill-opacity:1;" d="M 249.476562 337.617188 L 242.523438 316.21875 L 231.824219 319.695312 Z M 249.476562 337.617188 "/>
<path style=" stroke:none;fill-rule:nonzero;fill:rgb(100%,79.998779%,0%);fill-opacity:1;" d="M 249.476562 337.617188 L 231.273438 324.390625 L 237.886719 315.289062 Z M 249.476562 337.617188 "/>
<path style=" stroke:none;fill-rule:nonzero;fill:rgb(100%,79.998779%,0%);fill-opacity:1;" d="M 223.023438 337.617188 L 241.226562 324.390625 L 234.613281 315.289062 Z M 223.023438 337.617188 "/>
<path style=" stroke:none;fill-rule:nonzero;fill:rgb(100%,79.998779%,0%);fill-opacity:1;" d="M 223.023438 337.617188 L 229.976562 316.21875 L 240.675781 319.695312 Z M 223.023438 337.617188 "/>
<path style=" stroke:none;fill-rule:nonzero;fill:rgb(100%,79.998779%,0%);fill-opacity:1;" d="M 236.25 296.914062 L 243.203125 318.3125 L 232.503906 321.789062 Z M 236.25 296.914062 "/>
<path style=" stroke:none;fill-rule:nonzero;fill:rgb(100%,79.998779%,0%);fill-opacity:1;" d="M 236.25 296.914062 L 229.296875 318.3125 L 239.996094 321.789062 Z M 236.25 296.914062 "/>
<path style=" stroke:none;fill-rule:nonzero;fill:rgb(100%,79.998779%,0%);fill-opacity:1;" d="M 214.851562 312.460938 L 237.351562 312.460938 L 237.351562 323.710938 Z M 214.851562 312.460938 "/>
<path style=" stroke:none;fill-rule:nonzero;fill:rgb(100%,79.998779%,0%);fill-opacity:1;" d="M 214.851562 312.460938 L 233.054688 325.6875 L 239.667969 316.585938 Z M 214.851562 312.460938 "/>
<path style=" stroke:none;fill-rule:nonzero;fill:rgb(100%,79.998779%,0%);fill-opacity:1;" d="M 438.75 180 L 445.703125 201.398438 L 435.003906 204.875 Z M 438.75 180 "/>
<path style=" stroke:none;fill-rule:nonzero;fill:rgb(100%,79.998779%,0%);fill-opacity:1;" d="M 438.75 180 L 431.796875 201.398438 L 442.496094 204.875 Z M 438.75 180 "/>
<path style=" stroke:none;fill-rule:nonzero;fill:rgb(100%,79.998779%,0%);fill-opacity:1;" d="M 417.351562 195.546875 L 439.851562 195.546875 L 439.851562 206.796875 Z M 417.351562 195.546875 "/>
<path style=" stroke:none;fill-rule:nonzero;fill:rgb(100%,79.998779%,0%);fill-opacity:1;" d="M 417.351562 195.546875 L 435.554688 208.773438 L 442.167969 199.671875 Z M 417.351562 195.546875 "/>
<path style=" stroke:none;fill-rule:nonzero;fill:rgb(100%,79.998779%,0%);fill-opacity:1;" d="M 425.523438 220.703125 L 432.476562 199.304688 L 443.175781 202.78125 Z M 425.523438 220.703125 "/>
<path style=" stroke:none;fill-rule:nonzero;fill:rgb(100%,79.998779%,0%);fill-opacity:1;" d="M 425.523438 220.703125 L 443.726562 207.476562 L 437.113281 198.375 Z M 425.523438 220.703125 "/>
<path style=" stroke:none;fill-rule:nonzero;fill:rgb(100%,79.998779%,0%);fill-opacity:1;" d="M 460.148438 195.546875 L 437.648438 195.546875 L 437.648438 206.796875 Z M 460.148438 195.546875 "/>
<path style=" stroke:none;fill-rule:nonzero;fill:rgb(100%,79.998779%,0%);fill-opacity:1;" d="M 460.148438 195.546875 L 441.945312 208.773438 L 435.332031 199.671875 Z M 460.148438 195.546875 "/>
<path style=" stroke:none;fill-rule:nonzero;fill:rgb(100%,79.998779%,0%);fill-opacity:1;" d="M 451.976562 220.703125 L 445.023438 199.304688 L 434.324219 202.78125 Z M 451.976562 220.703125 "/>
<path style=" stroke:none;fill-rule:nonzero;fill:rgb(100%,79.998779%,0%);fill-opacity:1;" d="M 451.976562 220.703125 L 433.773438 207.476562 L 440.386719 198.375 Z M 451.976562 220.703125 "/>
<path style=" stroke:none;fill-rule:nonzero;fill:rgb(100%,79.998779%,0%);fill-opacity:1;" d="M 384.476562 103.789062 L 366.273438 90.5625 L 372.886719 81.460938 Z M 384.476562 103.789062 "/>
<path style=" stroke:none;fill-rule:nonzero;fill:rgb(100%,79.998779%,0%);fill-opacity:1;" d="M 384.476562 103.789062 L 377.523438 82.390625 L 366.824219 85.867188 Z M 384.476562 103.789062 "/>
<path style=" stroke:none;fill-rule:nonzero;fill:rgb(100%,79.998779%,0%);fill-opacity:1;" d="M 392.648438 78.632812 L 374.445312 91.859375 L 367.832031 82.757812 Z M 392.648438 78.632812 "/>
<path style=" stroke:none;fill-rule:nonzero;fill:rgb(100%,79.998779%,0%);fill-opacity:1;" d="M 392.648438 78.632812 L 370.148438 78.632812 L 370.148438 89.882812 Z M 392.648438 78.632812 "/>
<path style=" stroke:none;fill-rule:nonzero;fill:rgb(100%,79.998779%,0%);fill-opacity:1;" d="M 371.25 63.085938 L 378.203125 84.484375 L 367.503906 87.960938 Z M 371.25 63.085938 "/>
<path style=" stroke:none;fill-rule:nonzero;fill:rgb(100%,79.998779%,0%);fill-opacity:1;" d="M 371.25 63.085938 L 364.296875 84.484375 L 374.996094 87.960938 Z M 371.25 63.085938 "/>
<path style=" stroke:none;fill-rule:nonzero;fill:rgb(100%,79.998779%,0%);fill-opacity:1;" d="M 358.023438 103.789062 L 376.226562 90.5625 L 369.613281 81.460938 Z M 358.023438 103.789062 "/>
<path style=" stroke:none;fill-rule:nonzero;fill:rgb(100%,79.998779%,0%);fill-opacity:1;" d="M 358.023438 103.789062 L 364.976562 82.390625 L 375.675781 85.867188 Z M 358.023438 103.789062 "/>
<path style=" stroke:none;fill-rule:nonzero;fill:rgb(100%,79.998779%,0%);fill-opacity:1;" d="M 349.851562 78.632812 L 368.054688 91.859375 L 374.667969 82.757812 Z M 349.851562 78.632812 "/>
<path style=" stroke:none;fill-rule:nonzero;fill:rgb(100%,79.998779%,0%);fill-opacity:1;" d="M 349.851562 78.632812 L 372.351562 78.632812 L 372.351562 89.882812 Z M 349.851562 78.632812 "/>
<path style=" stroke:none;fill-rule:nonzero;fill:rgb(100%,79.998779%,0%);fill-opacity:1;" d="M 407.4375 153.203125 L 414.390625 131.804688 L 425.089844 135.28125 Z M 407.4375 153.203125 "/>
<path style=" stroke:none;fill-rule:nonzero;fill:rgb(100%,79.998779%,0%);fill-opacity:1;" d="M 407.4375 153.203125 L 425.640625 139.976562 L 419.027344 130.875 Z M 407.4375 153.203125 "/>
<path style=" stroke:none;fill-rule:nonzero;fill:rgb(100%,79.998779%,0%);fill-opacity:1;" d="M 433.886719 153.203125 L 415.683594 139.976562 L 422.296875 130.875 Z M 433.886719 153.203125 "/>
<path style=" stroke:none;fill-rule:nonzero;fill:rgb(100%,79.998779%,0%);fill-opacity:1;" d="M 433.886719 153.203125 L 426.933594 131.804688 L 416.234375 135.28125 Z M 433.886719 153.203125 "/>
<path style=" stroke:none;fill-rule:nonzero;fill:rgb(100%,79.998779%,0%);fill-opacity:1;" d="M 442.0625 128.046875 L 423.859375 141.273438 L 417.246094 132.171875 Z M 442.0625 128.046875 "/>
<path style=" stroke:none;fill-rule:nonzero;fill:rgb(100%,79.998779%,0%);fill-opacity:1;" d="M 442.0625 128.046875 L 419.5625 128.046875 L 419.5625 139.296875 Z M 442.0625 128.046875 "/>
<path style=" stroke:none;fill-rule:nonzero;fill:rgb(100%,79.998779%,0%);fill-opacity:1;" d="M 399.265625 128.046875 L 417.46875 141.273438 L 424.082031 132.171875 Z M 399.265625 128.046875 "/>
<path style=" stroke:none;fill-rule:nonzero;fill:rgb(100%,79.998779%,0%);fill-opacity:1;" d="M 399.265625 128.046875 L 421.765625 128.046875 L 421.765625 139.296875 Z M 399.265625 128.046875 "/>
<path style=" stroke:none;fill-rule:nonzero;fill:rgb(100%,79.998779%,0%);fill-opacity:1;" d="M 420.664062 112.5 L 413.710938 133.898438 L 424.410156 137.375 Z M 420.664062 112.5 "/>
<path style=" stroke:none;fill-rule:nonzero;fill:rgb(100%,79.998779%,0%);fill-opacity:1;" d="M 420.664062 112.5 L 427.617188 133.898438 L 416.917969 137.375 Z M 420.664062 112.5 "/>
<path style=" stroke:none;fill-rule:nonzero;fill:rgb(100%,79.998779%,0%);fill-opacity:1;" d="M 399.265625 263.046875 L 421.765625 263.046875 L 421.765625 274.296875 Z M 399.265625 263.046875 "/>
<path style=" stroke:none;fill-rule:nonzero;fill:rgb(100%,79.998779%,0%);fill-opacity:1;" d="M 399.265625 263.046875 L 417.46875 276.273438 L 424.082031 267.171875 Z M 399.265625 263.046875 "/>
<path style=" stroke:none;fill-rule:nonzero;fill:rgb(100%,79.998779%,0%);fill-opacity:1;" d="M 407.4375 288.203125 L 414.390625 266.804688 L 425.089844 270.28125 Z M 407.4375 288.203125 "/>
<path style=" stroke:none;fill-rule:nonzero;fill:rgb(100%,79.998779%,0%);fill-opacity:1;" d="M 407.4375 288.203125 L 425.640625 274.976562 L 419.027344 265.875 Z M 407.4375 288.203125 "/>
<path style=" stroke:none;fill-rule:nonzero;fill:rgb(100%,79.998779%,0%);fill-opacity:1;" d="M 433.886719 288.203125 L 415.683594 274.976562 L 422.296875 265.875 Z M 433.886719 288.203125 "/>
<path style=" stroke:none;fill-rule:nonzero;fill:rgb(100%,79.998779%,0%);fill-opacity:1;" d="M 433.886719 288.203125 L 426.933594 266.804688 L 416.234375 270.28125 Z M 433.886719 288.203125 "/>
<path style=" stroke:none;fill-rule:nonzero;fill:rgb(100%,79.998779%,0%);fill-opacity:1;" d="M 420.664062 247.5 L 413.710938 268.898438 L 424.410156 272.375 Z M 420.664062 247.5 "/>
<path style=" stroke:none;fill-rule:nonzero;fill:rgb(100%,79.998779%,0%);fill-opacity:1;" d="M 420.664062 247.5 L 427.617188 268.898438 L 416.917969 272.375 Z M 420.664062 247.5 "/>
<path style=" stroke:none;fill-rule:nonzero;fill:rgb(100%,79.998779%,0%);fill-opacity:1;" d="M 442.0625 263.046875 L 419.5625 263.046875 L 419.5625 274.296875 Z M 442.0625 263.046875 "/>
<path style=" stroke:none;fill-rule:nonzero;fill:rgb(100%,79.998779%,0%);fill-opacity:1;" d="M 442.0625 263.046875 L 423.859375 276.273438 L 417.246094 267.171875 Z M 442.0625 263.046875 "/>
<path style=" stroke:none;fill-rule:nonzero;fill:rgb(100%,79.998779%,0%);fill-opacity:1;" d="M 349.851562 312.460938 L 372.351562 312.460938 L 372.351562 323.710938 Z M 349.851562 312.460938 "/>
<path style=" stroke:none;fill-rule:nonzero;fill:rgb(100%,79.998779%,0%);fill-opacity:1;" d="M 349.851562 312.460938 L 368.054688 325.6875 L 374.667969 316.585938 Z M 349.851562 312.460938 "/>
<path style=" stroke:none;fill-rule:nonzero;fill:rgb(100%,79.998779%,0%);fill-opacity:1;" d="M 358.023438 337.617188 L 364.976562 316.21875 L 375.675781 319.695312 Z M 358.023438 337.617188 "/>
<path style=" stroke:none;fill-rule:nonzero;fill:rgb(100%,79.998779%,0%);fill-opacity:1;" d="M 358.023438 337.617188 L 376.226562 324.390625 L 369.613281 315.289062 Z M 358.023438 337.617188 "/>
<path style=" stroke:none;fill-rule:nonzero;fill:rgb(100%,79.998779%,0%);fill-opacity:1;" d="M 384.476562 337.617188 L 366.273438 324.390625 L 372.886719 315.289062 Z M 384.476562 337.617188 "/>
<path style=" stroke:none;fill-rule:nonzero;fill:rgb(100%,79.998779%,0%);fill-opacity:1;" d="M 384.476562 337.617188 L 377.523438 316.21875 L 366.824219 319.695312 Z M 384.476562 337.617188 "/>
<path style=" stroke:none;fill-rule:nonzero;fill:rgb(100%,79.998779%,0%);fill-opacity:1;" d="M 371.25 296.914062 L 364.296875 318.3125 L 374.996094 321.789062 Z M 371.25 296.914062 "/>
<path style=" stroke:none;fill-rule:nonzero;fill:rgb(100%,79.998779%,0%);fill-opacity:1;" d="M 371.25 296.914062 L 378.203125 318.3125 L 367.503906 321.789062 Z M 371.25 296.914062 "/>
<path style=" stroke:none;fill-rule:nonzero;fill:rgb(100%,79.998779%,0%);fill-opacity:1;" d="M 392.648438 312.460938 L 370.148438 312.460938 L 370.148438 323.710938 Z M 392.648438 312.460938 "/>
<path style=" stroke:none;fill-rule:nonzero;fill:rgb(100%,79.998779%,0%);fill-opacity:1;" d="M 392.648438 312.460938 L 374.445312 325.6875 L 367.832031 316.585938 Z M 392.648438 312.460938 "/>
</g>
</svg>
