<?xml version="1.0" encoding="UTF-8"?>
<svg xmlns="http://www.w3.org/2000/svg" xmlns:xlink="http://www.w3.org/1999/xlink" width="175.5pt" height="174pt" viewBox="0 0 175.5 174" version="1.1">
<g id="surface1">
<path style=" stroke:none;fill-rule:nonzero;fill:rgb(0%,74.508667%,89.802551%);fill-opacity:1;" d="M 87.753906 106.988281 C 87.753906 106.433594 89.609375 97.285156 91.878906 86.65625 C 94.148438 76.03125 96.003906 67.203125 96.003906 67.042969 C 96.003906 66.882812 101.226562 66.75 107.609375 66.75 L 119.214844 66.75 L 118.746094 69.1875 C 117.621094 75.042969 117.679688 75 110.707031 75 L 104.375 75 L 103.5625 78.785156 C 102.226562 85.011719 101.984375 84.75 109.125 84.75 C 114.910156 84.75 115.5 84.882812 115.5 86.1875 C 115.5 89.714844 114.933594 90 107.917969 90 C 104.25 90 101.25 90.171875 101.25 90.382812 C 101.25 90.714844 98.953125 101.492188 97.855469 106.3125 C 97.503906 107.847656 97.039062 108 92.609375 108 C 89.035156 108 87.75 107.734375 87.75 106.988281 Z M 87.753906 106.988281 "/>
<path style=" stroke:none;fill-rule:nonzero;fill:rgb(15.293884%,17.254639%,41.960144%);fill-opacity:1;" d="M 16.222656 172.773438 C -0.101562 167.761719 -4.40625 149.804688 4.679688 124.628906 C 7.195312 117.65625 8.953125 116.054688 12.375 117.613281 C 14.710938 118.679688 14.789062 120.84375 12.722656 127.4375 C 10.746094 133.738281 9.867188 142.304688 10.628906 147.851562 C 14.640625 177.195312 58.554688 170.628906 104.503906 133.820312 C 113.359375 126.726562 116.128906 125.617188 108.597656 132.183594 C 73.792969 162.527344 36.382812 178.96875 16.226562 172.777344 Z M 11.40625 106.347656 C 11.597656 105.398438 13.574219 96.101562 15.796875 85.6875 L 19.84375 66.75 L 24.921875 66.75 C 27.714844 66.75 29.988281 67.003906 29.96875 67.3125 C 29.953125 67.621094 28.007812 76.820312 25.644531 87.75 L 21.351562 107.625 L 16.207031 107.847656 C 11.1875 108.066406 11.070312 108.027344 11.40625 106.347656 Z M 38.691406 106.71875 C 38.867188 105.980469 40.695312 97.445312 42.753906 87.75 C 44.8125 78.054688 46.675781 69.34375 46.898438 68.390625 C 47.234375 66.953125 47.71875 66.699219 49.714844 66.890625 C 51.953125 67.105469 52.609375 67.925781 58.859375 78.28125 L 65.589844 89.4375 L 70.222656 67.125 L 75.296875 66.902344 C 79.890625 66.699219 80.332031 66.808594 79.949219 68.027344 C 79.714844 68.769531 77.839844 77.308594 75.777344 87 C 73.714844 96.695312 71.847656 105.382812 71.625 106.3125 C 71.308594 107.632812 70.6875 108 68.785156 108 C 66.449219 108 66.085938 107.554688 59.625 96.753906 L 52.894531 85.507812 L 48.300781 107.625 L 43.335938 107.84375 C 38.882812 108.042969 38.402344 107.925781 38.691406 106.71875 Z M 124.136719 106.3125 C 124.363281 105.382812 126.34375 96.1875 128.539062 85.875 L 132.527344 67.125 L 135.019531 67.125 C 137.425781 67.125 137.738281 67.496094 143.945312 77.796875 C 147.484375 83.667969 150.550781 88.476562 150.761719 88.484375 C 150.972656 88.492188 152.152344 83.6875 153.386719 77.8125 L 155.625 67.125 L 160.3125 66.902344 C 164.054688 66.722656 165 66.902344 165 67.789062 C 165 68.765625 158.199219 101.585938 157.03125 106.222656 C 156.675781 107.636719 156.085938 107.996094 154.136719 107.996094 C 151.777344 107.996094 151.4375 107.578125 144.996094 96.792969 L 138.304688 85.589844 L 136.160156 95.855469 C 134.980469 101.5 133.863281 106.542969 133.675781 107.058594 C 133.453125 107.675781 131.691406 107.996094 128.527344 107.996094 C 123.917969 107.996094 123.734375 107.925781 124.132812 106.308594 Z M 161.59375 55.179688 C 160.480469 53.480469 160.535156 52.945312 162.414062 47.117188 C 165.039062 38.96875 165.714844 28.335938 163.984375 22.386719 C 162.308594 16.628906 157.941406 11.824219 152.414062 9.664062 C 146.515625 7.359375 135.671875 7.363281 126.878906 9.671875 C 109.507812 14.234375 89.226562 25.285156 70.703125 40.285156 C 66.484375 43.703125 62.796875 46.5 62.507812 46.5 C 60.277344 46.5 79.746094 30.710938 92.375 22.277344 C 124.179688 1.042969 152.261719 -5.539062 166.617188 4.882812 C 169.195312 6.753906 170.769531 8.753906 172.617188 12.511719 C 175.023438 17.402344 175.121094 17.941406 175.097656 26.242188 C 175.078125 32.796875 174.683594 36.25 173.449219 40.5625 C 171.167969 48.539062 168.835938 54.558594 167.515625 55.878906 C 165.800781 57.59375 162.953125 57.261719 161.589844 55.183594 Z M 161.59375 55.179688 "/>
</g>
</svg>
